<?xml version="1.0" standalone="no"?><!DOCTYPE svg PUBLIC "-//W3C//DTD SVG 1.1//EN" "http://www.w3.org/Graphics/SVG/1.1/DTD/svg11.dtd"><svg t="1672820962340" class="icon" viewBox="0 0 1024 1024" version="1.1" xmlns="http://www.w3.org/2000/svg" p-id="7152" xmlns:xlink="http://www.w3.org/1999/xlink" width="32" height="32"><path d="M609.3 288H225.7c-17.7 0-32-14.3-32-32s14.3-32 32-32h383.6c17.7 0 32 14.3 32 32s-14.3 32-32 32zM609.3 480.1H225.7c-17.7 0-32-14.3-32-32s14.3-32 32-32h383.6c17.7 0 32 14.3 32 32s-14.3 32-32 32zM417.5 672.1H225.7c-17.7 0-32-14.3-32-32s14.3-32 32-32h191.8c17.7 0 32 14.3 32 32s-14.3 32-32 32z" p-id="7153" fill="#ffffff"></path><path d="M159.8 832.2c-17.6 0-31.9-14.3-31.9-32V160c0-17.7 14.3-32 31.9-32h513.9c17.6 0 31.9 14.3 31.9 32v288.1c0 17.7 14.3 32 31.9 32 17.6 0 31.9-14.3 31.9-32V128c0-35.4-28.6-64-63.9-64H127.9C92.6 64 64 92.7 64 128v704.2c0 35.4 28.6 64 63.9 64h480.8c17.6 0 31.9-14.3 31.9-32s-14.3-32-31.9-32H159.8zM950.6 950.6c-12.5 12.5-32.8 12.5-45.3 0L701.6 746.9l45.3-45.3 203.8 203.7c12.4 12.5 12.4 32.8-0.1 45.3z" p-id="7154" fill="#ffffff"></path><path d="M654.1 585.5l49.7 49.7-14.3 53.2-53.3 14.3-49.7-49.7c-8.7 32.1-0.4 67.9 24.8 93.1 37.5 37.5 98.3 37.5 135.9 0 37.5-37.5 37.5-98.3 0-135.8-25.2-25.2-60.9-33.4-93.1-24.8z" p-id="7155" fill="#ffffff"></path></svg>