<?xml version="1.0" standalone="no"?><!DOCTYPE svg PUBLIC "-//W3C//DTD SVG 1.1//EN" "http://www.w3.org/Graphics/SVG/1.1/DTD/svg11.dtd"><svg t="1672821772179" class="icon" viewBox="0 0 1024 1024" version="1.1" xmlns="http://www.w3.org/2000/svg" p-id="8080" xmlns:xlink="http://www.w3.org/1999/xlink" width="32" height="32"><path d="M672 85.333c51.504 0 93.536 40.56 95.896 91.481l0.104 4.52v224h32c51.504 0 93.536 40.559 95.896 91.48l0.104 4.52v341.333c0 51.504-40.56 93.535-91.48 95.895l-4.52 0.105H224c-51.504 0-93.536-40.56-95.896-91.481l-0.104-4.52V181.334c0-51.504 40.56-93.535 91.48-95.895l4.52-0.105h448z m0 64H224c-16.634 0-30.303 12.691-31.854 28.919l-0.146 3.081v661.334c0 16.633 12.69 30.303 28.918 31.853l3.082 0.147h576c16.634 0 30.303-12.691 31.854-28.919l0.146-3.081V501.333c0-16.633-12.69-30.303-28.918-31.853l-3.082-0.147h-32v341.334h-64V181.333c0-16.633-12.69-30.303-28.918-31.853l-3.082-0.147zM554.667 512v64H341.333v-64h213.334z m0-213.333v64H341.333v-64h213.334z" p-id="8081" fill="#ffffff"></path></svg>