<?xml version="1.0" standalone="no"?><!DOCTYPE svg PUBLIC "-//W3C//DTD SVG 1.1//EN" "http://www.w3.org/Graphics/SVG/1.1/DTD/svg11.dtd"><svg t="1674972178148" class="icon" viewBox="0 0 1024 1024" version="1.1" xmlns="http://www.w3.org/2000/svg" p-id="2606" xmlns:xlink="http://www.w3.org/1999/xlink" width="14" height="14"><path d="M534.896 122.407l123.297 115.69h270.356c17.496 0 31.713 14.042 32 31.471v562.53c0 17.496-14.042 31.712-31.471 32H96.548c-17.496 0-31.713-14.043-32-31.472V270.097c0-17.496 14.042-31.713 31.471-31.996l0.53-0.004h271.258l123.297-115.69c12.312-11.552 31.48-11.552 43.792 0z m361.652 179.69h-768v498h768v-498zM745 660c30.619 0 55.498 24.573 55.992 55.074L801 716H279c-30.928 0-56-25.072-56-56h522zM512 349c66.826 0 121 54.174 121 121s-54.174 121-121 121-121-54.174-121-121 54.174-121 121-121z m0 56c-35.899 0-65 29.101-65 65s29.101 65 65 65 65-29.101 65-65-29.101-65-65-65z m-217 43c30.619 0 55.498 24.573 55.992 55.074L351 504h-72c-30.928 0-56-25.072-56-56h72z m450 0c30.619 0 55.498 24.573 55.992 55.074L801 504h-72c-30.619 0-55.498-24.573-55.992-55.074L673 448h72zM513 178.431l-63.462 59.666h126.924L513 178.43z"  p-id="8081" fill="#ffffff"></path></svg>