<?xml version="1.0" standalone="no"?><!DOCTYPE svg PUBLIC "-//W3C//DTD SVG 1.1//EN" "http://www.w3.org/Graphics/SVG/1.1/DTD/svg11.dtd"><svg t="1672820614534" class="icon" viewBox="0 0 1024 1024" version="1.1" xmlns="http://www.w3.org/2000/svg" p-id="6672" width="48" height="48" xmlns:xlink="http://www.w3.org/1999/xlink"><path d="M648 288c0-17.7-14.3-32-32-32H232.6c-17.6 0-32 14.3-32 32s14.3 32 32 32H616c17.7 0 32-14.3 32-32zM648 480c0-17.7-14.3-32-32-32H232.6c-17.6 0-32 14.3-32 32s14.3 32 32 32H616c17.7 0 32-14.3 32-32zM232.6 640c-17.6 0-32 14.3-32 32s14.3 32 32 32h191.7c17.6 0 32-14.3 32-32s-14.3-32-32-32H232.6z" p-id="6673" fill="#ffffff"></path><path d="M488.4 864H166.7c-17.6 0-31.9-14.3-31.9-32V192c0-17.7 14.3-32 31.9-32h513.6c17.6 0 31.9 14.3 31.9 32v256c0 17.7 14.3 32 31.9 32 17.6 0 31.9-14.3 31.9-32V160c0-35.3-28.6-64-63.8-64H134.8C99.6 96 71 124.7 71 160v704c0 35.3 28.6 64 63.8 64h353.6c17.6 0 31.9-14.3 31.9-32s-14.3-32-31.9-32z" p-id="6674" fill="#ffffff"></path><path d="M943.6 840.3L830.5 727.2l47.7-47.7c11.1-11.1 11.1-29.1 0-40.3l-95.5-95.5c-11.1-11.1-29.1-11.1-40.3 0L601.8 684.5c-11.1 11.1-11.1 29.1 0 40.3l95.5 95.5c11.1 11.1 29.1 11.1 40.3 0l47.7-47.7 113.1 113.1c12.5 12.5 32.8 12.5 45.2 0 12.5-12.6 12.5-32.9 0-45.4zM785.3 682L740 727.2l-22.6 22.6-45.2-45.2 90.5-90.5 45.2 45.2-22.6 22.7zM707.9 861.8h-128c-17.7 0-32 14.3-32 32s14.3 32 32 32h128c17.7 0 32-14.3 32-32s-14.3-32-32-32z" p-id="6675" fill="#ffffff"></path></svg>