<?xml version="1.0" standalone="no"?><!DOCTYPE svg PUBLIC "-//W3C//DTD SVG 1.1//EN" "http://www.w3.org/Graphics/SVG/1.1/DTD/svg11.dtd"><svg t="1672822391329" class="icon" viewBox="0 0 1024 1024" version="1.1" xmlns="http://www.w3.org/2000/svg" p-id="9003" xmlns:xlink="http://www.w3.org/1999/xlink" width="32" height="32"><path d="M640.9 256c0-17.7-14.3-32-31.9-32H225.6c-17.6 0-31.9 14.3-31.9 32s14.3 32 31.9 32H609c17.6 0 31.9-14.3 31.9-32zM640.9 448c0-17.7-14.3-32-31.9-32H225.6c-17.6 0-31.9 14.3-31.9 32s14.3 32 31.9 32H609c17.6 0 31.9-14.3 31.9-32zM225.6 608c-17.6 0-31.9 14.3-31.9 32s14.3 32 31.9 32h191.7c17.6 0 31.9-14.3 31.9-32s-14.3-32-31.9-32H225.6zM736.6 512c-123.4 0-223.4 100.3-223.4 224s100 224 223.4 224S960 859.7 960 736 860 512 736.6 512zM893 704H769V579.3c30.3 6.2 58.1 21.2 80.4 43.6 22.5 22.5 37.5 50.6 43.6 81.1zM736.6 896c-42.6 0-82.7-16.6-112.8-46.9-30.1-30.2-46.7-70.4-46.7-113.1 0-42.7 16.6-82.9 46.7-113.1 22.5-22.6 50.6-37.6 81.2-43.7V768h188c-6.1 30.5-21.1 58.6-43.6 81.1-30.1 30.3-70.2 46.9-112.8 46.9z" p-id="9004" fill="#ffffff"></path><path d="M481.3 832H159.7c-17.6 0-31.9-14.3-31.9-32V160c0-17.7 14.3-32 31.9-32h513.6c17.6 0 31.9 14.3 31.9 32v256c0 17.7 14.3 32 31.9 32 17.6 0 31.9-14.3 31.9-32V128c0-35.3-28.6-64-63.8-64H127.8C92.6 64 64 92.7 64 128v704c0 35.3 28.6 64 63.8 64h353.5c17.6 0 31.9-14.3 31.9-32s-14.2-32-31.9-32z" p-id="9005" fill="#ffffff"></path></svg>