<?xml version="1.0" standalone="no"?><!DOCTYPE svg PUBLIC "-//W3C//DTD SVG 1.1//EN" "http://www.w3.org/Graphics/SVG/1.1/DTD/svg11.dtd"><svg t="1678187368779" class="icon" viewBox="0 0 1024 1024" version="1.1" xmlns="http://www.w3.org/2000/svg" p-id="1626" xmlns:xlink="http://www.w3.org/1999/xlink" width="200" height="200"><path d="M0 0h1024v1024H0z" fill="#707070" fill-opacity="0" p-id="1627"></path><path d="M256 512m-74.666667 0a74.666667 74.666667 0 1 0 149.333334 0 74.666667 74.666667 0 1 0-149.333334 0Z" fill="#707070" p-id="1628"></path><path d="M512 512m-74.666667 0a74.666667 74.666667 0 1 0 149.333334 0 74.666667 74.666667 0 1 0-149.333334 0Z" fill="#707070" p-id="1629"></path><path d="M768 512m-74.666667 0a74.666667 74.666667 0 1 0 149.333334 0 74.666667 74.666667 0 1 0-149.333334 0Z" fill="#707070" p-id="1630"></path></svg>