<?xml version="1.0" standalone="no"?><!DOCTYPE svg PUBLIC "-//W3C//DTD SVG 1.1//EN" "http://www.w3.org/Graphics/SVG/1.1/DTD/svg11.dtd"><svg t="1672821596203" class="icon" viewBox="0 0 1024 1024" version="1.1" xmlns="http://www.w3.org/2000/svg" p-id="7896" xmlns:xlink="http://www.w3.org/1999/xlink" width="32" height="32"><path d="M128.04783999 128.08212l447.78548901 0 0 255.286244 192.22909299 0 0 65.098647 64.07943402 0L832.14185601 320.31326 575.834352 64.005756 125.915269 64.005756c-34.853809 0-62.011332 28.84700201-62.011332 64.076364l0 767.286244c0 35.228339 27.157523 64.07534099 62.011332 64.075341l321.76328401 0-2e-8-64.075341L128.04783999 895.368364 128.04783999 128.08212zM639.910717 192.159508l128.15170501 128.051421L639.62112101 320.192509 639.910717 192.159508zM935.267585 650.71017801c-54.129828-51.74859399-164.51079802-138.603755-295.731398-138.60375501-131.15920199 0-241.605663 86.854137-295.73344499 138.60375501-32.66393399 31.162744-32.66393399 76.528977-2e-8 107.69172098 54.127781 51.750641 164.574243 138.60477801 295.73344501 138.60477801 131.2206 0 241.60157001-86.854137 295.731398-138.60477799C967.868073 727.239156 967.868073 681.87292199 935.267585 650.71017801zM891.462916 711.59587401C844.15649401 756.773819 748.542856 832.61615799 639.53618599 832.61615799c-109.06806799 0-204.62235399-75.84131601-251.9298-121.020284-3.12927001-3.00544999-4.50664-5.694699-4.50663998-7.07104599 0-1.314948 1.37839301-4.004197 4.50664-7.007601 47.30642199-45.243437 142.861732-121.022331 251.9298-121.022331 109.006669 0 204.620307 75.84029201 251.92672999 120.957863 3.13029401 3.004427 4.503571 5.756097 4.503571 7.071046C895.96750999 705.900152 894.59320999 708.654892 891.462916 711.59587401zM641.53675001 640.135332c-34.979676 0-63.32423399 28.72215801-63.32423401 64.076364 0 35.355229 28.34455798 64.076364 63.32423401 64.076364 34.919301 0 63.325257-28.721135 63.32525699-64.076364C704.862008 668.85749101 676.456051 640.135332 641.53675001 640.135332z" p-id="7897" fill="#ffffff"></path></svg>