<?xml version="1.0" standalone="no"?><!DOCTYPE svg PUBLIC "-//W3C//DTD SVG 1.1//EN" "http://www.w3.org/Graphics/SVG/1.1/DTD/svg11.dtd"><svg t="1672796608489" class="icon" viewBox="0 0 1024 1024" version="1.1" xmlns="http://www.w3.org/2000/svg" p-id="4316" xmlns:xlink="http://www.w3.org/1999/xlink" width="200" height="200"><path d="M660.99 398.61c-52.09 0-96.18 34.94-110.06 82.61H108.17c-5.56 0-10.06 4.5-10.06 10.06v43.88c0 5.56 4.5 10.06 10.06 10.06h442.76c13.88 47.67 57.96 82.61 110.06 82.61s96.18-34.94 110.06-82.61h147c5.56 0 10.06-4.5 10.06-10.06v-43.88c0-5.56-4.5-10.06-10.06-10.06h-147c-13.89-47.67-57.97-82.61-110.06-82.61z m0 165.22c-27.91 0-50.61-22.7-50.61-50.61s22.7-50.61 50.61-50.61 50.61 22.7 50.61 50.61-22.71 50.61-50.61 50.61zM319.31 653.45c-52.09 0-96.18 34.94-110.06 82.61H108.17c-5.56 0-10.06 4.5-10.06 10.06V790c0 5.56 4.5 10.06 10.06 10.06h101.08c13.88 47.67 57.96 82.61 110.06 82.61s96.18-34.94 110.06-82.61h488.68c5.56 0 10.06-4.5 10.06-10.06v-43.88c0-5.56-4.5-10.06-10.06-10.06H429.37c-13.89-47.67-57.97-82.61-110.06-82.61z m0 165.22c-27.91 0-50.61-22.7-50.61-50.61s22.7-50.61 50.61-50.61 50.61 22.7 50.61 50.61-22.71 50.61-50.61 50.61zM429.37 224.21c-13.88-47.67-57.96-82.61-110.06-82.61s-96.18 34.94-110.06 82.61H108.17c-5.56 0-10.06 4.5-10.06 10.06v43.88c0 5.56 4.5 10.06 10.06 10.06h101.08c13.88 47.67 57.96 82.61 110.06 82.61s96.18-34.94 110.06-82.61h488.68c5.56 0 10.06-4.5 10.06-10.06v-43.88c0-5.56-4.5-10.06-10.06-10.06H429.37z m-110.06 82.61c-27.91 0-50.61-22.7-50.61-50.61s22.7-50.61 50.61-50.61 50.61 22.7 50.61 50.61-22.71 50.61-50.61 50.61z" fill="#333333" p-id="4317"></path></svg>