<svg xmlns="http://www.w3.org/2000/svg" xmlns:xlink="http://www.w3.org/1999/xlink" fill="none" version="1.1" width="44.996524810791016" height="39.980812072753906" viewBox="0 0 44.996524810791016 39.980812072753906"><g><path d="M10.331,32.9889C10.8097,33.2893,11.1249,33.7874,11.1882,34.3437C11.3075,35.3507,10.5648,36.2578,9.54206,36.3542C8.51933,36.4506,7.61609,35.6986,7.54007,34.6875C7.45297,33.711,8.06969,32.7242,9.13589,32.1912C10.7422,31.39,12.8746,31.6066,14.4878,32.1912C18.0871,33.4978,21.108,36.8607,22.2195,38.5558C20.338,31.892,12.7038,26.0191,5.87109,28.9865C3.53859,29.9631,2.07195,32.2728,2.19861,34.7701C2.4007,37.5621,4.63764,39.945,8.02788,39.9794C9.51168,40.0152,10.9313,39.3825,11.885,38.2601C13.3005,36.4343,12.5178,33.7777,10.331,32.9855L10.331,32.9889ZM34.5819,32.9889C34.1049,33.2904,33.7912,33.7882,33.7282,34.3437C33.609,35.3507,34.3516,36.2577,35.3743,36.3541C36.397,36.4505,37.3003,35.6986,37.3763,34.6875C37.4634,33.711,36.8467,32.7242,35.777,32.1912C34.1742,31.39,32.0418,31.6066,30.4286,32.1912C26.8293,33.4978,23.8084,36.8607,22.7004,38.5558C24.5819,31.892,32.2125,26.0191,39.0453,28.9865C41.3778,29.9631,42.8444,32.2728,42.7178,34.7701C42.5157,37.5621,40.2788,39.945,36.8885,39.9794C35.4047,40.0152,33.9851,39.3825,33.0314,38.2601C31.6157,36.4354,32.3964,33.7793,34.5819,32.9855L34.5819,32.9889ZM22.4808,15.2394C28.7805,15.2394,33.8885,12.0072,33.8885,8.01857C33.8885,4.92392,30.7805,2.25221,26.4181,1.23786C31.5784,2.26941,35.3101,5.29872,35.3101,8.86788C35.3101,12.97,30.4321,15.9099,25.8119,16.5873C23.5436,16.9311,23.0523,16.9896,22.4808,17.5982C21.9094,16.9896,21.4355,16.9105,19.1498,16.5873C14.5157,15.8996,9.65158,12.97,9.65158,8.86788C9.65158,5.29872,13.3833,2.27284,18.5436,1.23786C14.1847,2.25221,11.0697,4.90673,11.0697,8.01857C11.0697,12.0072,16.1777,15.2394,22.4774,15.2394L22.4808,15.2394ZM22.4808,19.8539C23.6551,18.7879,25.2021,18.6538,26.5575,18.3684C32.9025,17.0343,37.0662,13.7471,37.0662,9.58652C37.0662,7.91197,36.345,6.33714,35.0906,4.98925C33,2.73704,29.4355,1.09344,25.216,0.587981C33.0209,1.41666,38.9443,5.63569,38.9443,10.735C38.9443,15.2875,34.5227,18.6435,27.6585,20.5037C24.6864,21.3152,23.2509,21.8585,22.4774,23.1479C21.7073,21.8585,20.2718,21.3152,17.2962,20.5037C10.4355,18.6298,6.01046,15.2875,6.01046,10.735C6.01046,5.63569,11.9512,1.39947,19.7422,0.587982C15.5261,1.09344,11.9547,2.73704,9.87108,4.98926C8.61673,6.33714,7.89547,7.91198,7.89547,9.58652C7.89547,13.7471,12.0767,17.0343,18.4042,18.3684C19.7596,18.6538,21.3066,18.7879,22.4774,19.8539L22.4808,19.8539ZM22.4808,26.8271C23.6969,24.4202,26.8781,23.1617,29.5436,22.2986C30.3206,22.0476,30.6585,21.9548,31.5993,21.6109C37,19.5994,40.6342,15.8583,40.6585,11.5705C40.6585,5.54973,33.5366,0.605176,24.3972,0C35.9338,0.601736,44.9965,6.63629,44.9965,13.9947C44.9965,18.9152,41.4704,23.0242,34.8084,25.7509C32.1254,26.8512,24.23,29.1344,22.4983,37.2114C20.6794,29.1137,12.8711,26.8512,10.1882,25.7509C3.52613,23.0242,0,18.9152,0,13.9947C0,6.63629,9.05923,0.601738,20.5993,0.00000131168C11.4425,0.587983,4.32056,5.54285,4.32056,11.5533C4.32056,15.8411,7.96168,19.5822,13.3798,21.5937C14.3171,21.9376,14.6551,22.0476,15.4321,22.2814C18.0976,23.1445,21.2788,24.4099,22.4948,26.8099L22.4808,26.8271ZM18.1986,6.69131C18.2236,4.36528,20.1501,2.49727,22.5072,2.51365C24.8643,2.53002,26.7641,4.42461,26.7558,6.75075C26.7475,9.07703,24.8344,10.9585,22.4774,10.9585C20.1022,10.9452,18.187,9.03528,18.1986,6.69131Z" fill="#FFFFFF" fill-opacity="1"/></g></svg>