<?xml version="1.0" standalone="no"?><!DOCTYPE svg PUBLIC "-//W3C//DTD SVG 1.1//EN" "http://www.w3.org/Graphics/SVG/1.1/DTD/svg11.dtd"><svg t="1672822780988" class="icon" viewBox="0 0 1024 1024" version="1.1" xmlns="http://www.w3.org/2000/svg" p-id="9745" xmlns:xlink="http://www.w3.org/1999/xlink" width="32" height="32"><path d="M699.24 957.13c-4.11 0-8.25-0.44-12.36-1.35-19.3-4.24-34.78-17.87-41.44-36.47l-0.01-0.01-98.46-275.29-84.44 79.85 18.04 131.32c2.38 17.37-3.53 35.19-15.8 47.69l-35.8 36.44c-12.32 12.57-29.47 18.65-46.95 16.71-17.52-1.96-32.88-11.67-42.16-26.65l-88.29-142.6-159.3-108.63c-13.96-9.51-22.93-24.6-24.61-41.42-1.69-16.8 4.12-33.38 15.92-45.47l35.59-36.49c13.48-13.83 32.82-19.85 51.81-16.13l136.47 26.87 80.66-89.71-281.75-104.4c-18.2-6.74-31.59-22.07-35.82-41.01-4.24-18.94 1.36-38.52 14.96-52.36l71.58-72.92c13.45-13.67 32.68-19.68 51.49-16.03l371.69 72.16 118.01-118.06c49.14-49.7 99.65-76.04 145.93-76.04h0.25c30.4 0.06 57.75 11.6 79.11 33.38 15.29 15.51 85.5 99.68-40.64 228.16L763.14 448.39l63.87 368.93c3.11 18.05-2.69 36.59-15.5 49.65l-71.74 73.07c-10.88 11.08-25.43 17.09-40.53 17.09z m-564.69-327.1l153.98 104.98a56.509 56.509 0 0 1 16.35 17.06l84.63 136.71 27.66-28.15-18.07-131.47c-2.5-18.2 3.97-36.58 17.32-49.19l94.19-89.07c14.03-13.28 33.62-18.56 52.44-14.02 18.79 4.49 33.88 18.03 40.39 36.23l98.31 274.9 62.04-63.18-63.87-368.96c-3.16-18.24 2.78-36.94 15.87-50.02l121.97-121.93c55.34-56.36 70.55-108.35 40.47-138.84-9.49-9.67-20.57-14.35-33.92-14.38h-0.12c-28.51 0-64.31 20.34-100.85 57.29L622.75 308.64c-13.45 13.43-32.61 19.29-51.2 15.64l-371.59-72.13-62 63.15 281.31 104.23a56.938 56.938 0 0 1 35.54 39.8 56.91 56.91 0 0 1-12.95 51.75l-89.61 99.69c-13.34 14.85-33.82 21.65-53.41 17.82l-136.63-26.9-27.66 28.34z" fill="#ffffff" p-id="9746"></path></svg>