<?xml version="1.0" standalone="no"?><!DOCTYPE svg PUBLIC "-//W3C//DTD SVG 1.1//EN" "http://www.w3.org/Graphics/SVG/1.1/DTD/svg11.dtd"><svg t="1683191989784" class="icon" viewBox="0 0 1024 1024" version="1.1" xmlns="http://www.w3.org/2000/svg" p-id="2634" xmlns:xlink="http://www.w3.org/1999/xlink" width="200" height="200"><path d="M875.789474 35.031579H382.652632c-21.557895 0-48.505263 0-80.842106 24.252632L145.515789 191.326316C121.263158 210.189474 107.789474 223.663158 107.789474 266.778947v37.726316c0 21.557895 18.863158 40.421053 40.421052 40.421053h134.736842c21.557895 0 40.421053-18.863158 40.421053-40.421053V261.389474c0-10.778947-8.084211-18.863158-18.863158-18.863158s-18.863158 8.084211-18.863158 18.863158v43.115789c0 2.694737-2.694737 2.694737-2.694737 2.694737h-134.736842c-2.694737 0-2.694737-2.694737-2.694737-2.694737V266.778947c0-26.947368 5.389474-29.642105 26.947369-48.505263L323.368421 88.926316c24.252632-16.168421 37.726316-16.168421 59.284211-16.168421h493.136842c2.694737 0 2.694737 2.694737 2.694737 2.694737v875.789473c0 2.694737-2.694737 2.694737-2.694737 2.694737h-727.578948c-2.694737 0-2.694737-2.694737-2.694737-2.694737v-512c0-10.778947-8.084211-18.863158-18.863157-18.863158s-18.863158 5.389474-18.863158 16.168421v512c0 21.557895 18.863158 40.421053 40.421052 40.421053H878.484211c21.557895 0 40.421053-18.863158 40.421052-40.421053V75.452632c-2.694737-21.557895-18.863158-40.421053-43.115789-40.421053z" fill="#707070" p-id="2635"></path><path d="M382.652632 770.694737c2.694737 2.694737 8.084211 5.389474 10.778947 5.389474 5.389474 0 10.778947-2.694737 13.473684-8.084211L512 646.736842l102.4 121.263158c2.694737 5.389474 8.084211 8.084211 13.473684 8.084211s8.084211-2.694737 10.778948-5.389474c8.084211-5.389474 8.084211-18.863158 2.694736-26.947369l-105.094736-126.652631 105.094736-126.652632c5.389474-8.084211 5.389474-18.863158-2.694736-26.947368-8.084211-5.389474-18.863158-5.389474-26.947369 2.694737L512 587.452632l-102.4-121.263158c-5.389474-8.084211-18.863158-8.084211-26.947368-2.694737-8.084211 5.389474-8.084211 18.863158-2.694737 26.947368l105.094737 126.652632-105.094737 126.652631c-5.389474 8.084211-5.389474 21.557895 2.694737 26.947369z" fill="#707070" p-id="2636"></path></svg>