<?xml version="1.0" standalone="no"?><!DOCTYPE svg PUBLIC "-//W3C//DTD SVG 1.1//EN" "http://www.w3.org/Graphics/SVG/1.1/DTD/svg11.dtd"><svg t="1672822593324" class="icon" viewBox="0 0 1024 1024" version="1.1" xmlns="http://www.w3.org/2000/svg" p-id="9374" xmlns:xlink="http://www.w3.org/1999/xlink" width="32" height="32"><path d="M544.3 896H160.5c-17.7 0-32-14.3-32-32V160c0-17.7 14.3-32 32-32h383.9v160c0 35.3 28.6 64 64 64h159.9v192c0 17.7 14.3 32 32 32s32-14.3 32-32V270.2c0-8.5-3.3-16.6-9.3-22.6L649.7 73.4c-6-6-14.2-9.4-22.7-9.4H128.5c-35.3 0-64 28.7-64 64v768c0 35.3 28.6 64 64 64h415.9c17.7 0 32-14.3 32-32-0.1-17.7-14.4-32-32.1-32z m96-608c-17.7 0-32-14.3-32-32V128l159.9 160H640.3z" p-id="9375" fill="#ffffff"></path><path d="M544.3 672H223.5c-17.7 0-32 14.3-32 32s14.3 32 32 32h320.9c17.7 0 32-14.3 32-32-0.1-17.7-14.4-32-32.1-32zM607.3 480H223.5c-17.7 0-32 14.3-32 32s14.3 32 32 32h383.9c17.7 0 32-14.3 32-32-0.1-17.7-14.4-32-32.1-32zM223.5 352h191.9c17.7 0 32-14.3 32-32s-14.3-32-32-32H223.5c-17.7 0-32 14.3-32 32s14.3 32 32 32zM608.5 734h64v226h-64zM704.5 798h64v162h-64zM800.5 702h64v258h-64zM895.5 670h64v290h-64z" p-id="9376" fill="#ffffff"></path></svg>