<svg xmlns="http://www.w3.org/2000/svg" xmlns:xlink="http://www.w3.org/1999/xlink" fill="none" version="1.1" width="27.99783706665039" height="24.988006591796875" viewBox="0 0 27.99783706665039 24.988006591796875"><g><path d="M6.42819,20.6181C6.72605,20.8058,6.92214,21.1171,6.96152,21.4648C7.03575,22.0942,6.57364,22.6611,5.93728,22.7213C5.30092,22.7816,4.7389,22.3116,4.6916,21.6797C4.6374,21.0694,5.02114,20.4526,5.68456,20.1195C6.68401,19.6188,8.01084,19.7542,9.01464,20.1195C11.2542,20.9361,13.1339,23.0379,13.8255,24.0974C12.6547,19.9325,7.90461,16.2619,3.65312,18.1166C2.20179,18.7269,1.28921,20.1705,1.36802,21.7313C1.49377,23.4763,2.88564,24.9656,4.99513,24.9871C5.91838,25.0095,6.8017,24.614,7.39513,23.9126C8.27586,22.7715,7.78885,21.1111,6.42819,20.6159L6.42819,20.6181ZM21.5176,20.6181C21.2208,20.8065,21.0256,21.1176,20.9865,21.4648C20.9123,22.0942,21.3744,22.6611,22.0107,22.7213C22.647,22.7815,23.209,22.3116,23.2564,21.6797C23.3106,21.0694,22.9268,20.4526,22.2613,20.1195C21.264,19.6188,19.9371,19.7542,18.9333,20.1195C16.6938,20.9361,14.8141,23.0379,14.1247,24.0974C15.2954,19.9325,20.0434,16.2619,24.2949,18.1166C25.7462,18.7269,26.6588,20.1705,26.58,21.7313C26.4542,23.4763,25.0623,24.9656,22.9529,24.9871C22.0296,25.0095,21.1463,24.614,20.5528,23.9126C19.672,22.7721,20.1578,21.1121,21.5176,20.6159L21.5176,20.6181ZM13.9881,9.52463C17.9079,9.52463,21.0862,7.50451,21.0862,5.0116C21.0862,3.07745,19.1523,1.40763,16.4379,0.773661C19.6488,1.41838,21.9707,3.3117,21.9707,5.54242C21.9707,8.10625,18.9355,9.94369,16.0607,10.3671C14.6493,10.582,14.3436,10.6185,13.9881,10.9989C13.6325,10.6185,13.3377,10.5691,11.9155,10.3671C9.03198,9.93725,6.00542,8.10625,6.00542,5.54242C6.00542,3.3117,8.32738,1.42053,11.5382,0.773661C8.82602,1.40763,6.88781,3.06671,6.88781,5.0116C6.88781,7.50451,10.0661,9.52463,13.9859,9.52463L13.9881,9.52463ZM13.9881,12.4087C14.7187,11.7425,15.6813,11.6586,16.5247,11.4803C20.4726,10.6464,23.0634,8.59194,23.0634,5.99158C23.0634,4.94498,22.6146,3.96072,21.8342,3.11828C20.5333,1.71065,18.3155,0.683399,15.69,0.367488C20.5463,0.885413,24.232,3.52231,24.232,6.70936C24.232,9.55472,21.4808,11.6522,17.2098,12.8148C15.3604,13.322,14.4672,13.6616,13.9859,14.4675C13.5068,13.6616,12.6136,13.322,10.7621,12.8148C6.49323,11.6436,3.73984,9.55472,3.73984,6.70936C3.73984,3.52231,7.43632,0.874667,12.284,0.367489C9.66071,0.683401,7.43849,1.71065,6.14201,3.11828C5.36152,3.96072,4.91274,4.94498,4.91274,5.99158C4.91274,8.59194,7.51437,10.6464,11.4515,11.4803C12.2949,11.6586,13.2575,11.7425,13.9859,12.4087L13.9881,12.4087ZM13.9881,16.767C14.7447,15.2626,16.7241,14.4761,18.3827,13.9366C18.8661,13.7798,19.0764,13.7217,19.6618,13.5068C23.0222,12.2496,25.2835,9.91146,25.2986,7.23158C25.2986,3.46858,20.8672,0.378235,15.1805,0C22.3588,0.376085,27.9978,4.14768,27.9978,8.74667C27.9978,11.822,25.8038,14.3901,21.6585,16.0943C19.9892,16.782,15.0764,18.209,13.9989,23.2571C12.8672,18.1961,8.00867,16.782,6.3393,16.0943C2.19404,14.3901,0,11.822,0,8.74667C0,4.14768,5.63686,0.376086,12.8173,8.19801e-7C7.11979,0.36749,2.68835,3.46428,2.68835,7.22084C2.68835,9.90071,4.95393,12.2389,8.32521,13.4961C8.90841,13.711,9.1187,13.7798,9.60217,13.9259C11.2607,14.4653,13.2401,15.2562,13.9968,16.7562L13.9881,16.767ZM11.3236,4.18207C11.3391,2.7283,12.5379,1.56079,14.0045,1.57103C15.4711,1.58126,16.6532,2.76538,16.6481,4.21922C16.6429,5.67314,15.4525,6.84905,13.9859,6.84905C12.508,6.84076,11.3164,5.64705,11.3236,4.18207Z" fill="#E60012" fill-opacity="1"/></g></svg>