<?xml version="1.0" standalone="no"?><!DOCTYPE svg PUBLIC "-//W3C//DTD SVG 1.1//EN" "http://www.w3.org/Graphics/SVG/1.1/DTD/svg11.dtd"><svg t="1672821129920" class="icon" viewBox="0 0 1024 1024" version="1.1" xmlns="http://www.w3.org/2000/svg" p-id="7338" xmlns:xlink="http://www.w3.org/1999/xlink" width="32" height="32"><path d="M540.8 508.4V283.4c-1.8-14.4-14.4-25.2-27-25.2-16.2 0-28.8 12.6-28.8 28.8v221.4c-37.8 12.6-64.8 46.8-64.8 90s27 77.4 64.8 90V740.6c1.8 14.4 14.4 25.2 27 25.2 16.2 0 28.8-12.6 28.8-28.8v-48.6c37.8-12.6 64.8-46.8 64.8-90 0-41.4-27-77.4-64.8-90zM512 636.2c-21.6 0-37.8-16.2-37.8-37.8 0-21.6 16.2-37.8 37.8-37.8s37.8 16.2 37.8 37.8c0 21.6-16.2 37.8-37.8 37.8z" p-id="7339" fill="#ffffff"></path><path d="M812.6 62H211.4C128.6 62 62 128.6 62 211.4v599.4C62 895.4 128.6 962 211.4 962h599.4c82.8 0 149.4-66.6 149.4-149.4V211.4C962 128.6 895.4 62 812.6 62z m93.6 750.6v5.4c-3.6 48.6-43.2 88.2-93.6 88.2H206c-48.6-3.6-88.2-43.2-88.2-93.6V206c3.6-48.6 43.2-88.2 93.6-88.2H816.2c48.6 3.6 88.2 43.2 88.2 93.6v601.2z" p-id="7340" fill="#ffffff"></path><path d="M315.8 341v-57.6c-1.8-14.4-14.4-25.2-27-25.2-16.2 0-28.8 12.6-28.8 28.8v54c-37.8 12.6-64.8 46.8-64.8 90s27 77.4 64.8 90v219.6c1.8 14.4 14.4 25.2 27 25.2 16.2 0 28.8-12.6 28.8-28.8v-216c37.8-12.6 64.8-46.8 64.8-90s-27-77.4-64.8-90z m-28.8 127.8c-21.6 0-37.8-16.2-37.8-37.8 0-21.6 16.2-37.8 37.8-37.8s37.8 16.2 37.8 37.8c0 19.8-18 37.8-37.8 37.8zM764 341v-57.6c-1.8-14.4-14.4-25.2-27-25.2-16.2 0-28.8 12.6-28.8 28.8v54c-37.8 12.6-64.8 46.8-64.8 90s27 77.4 64.8 90v219.6c1.8 14.4 14.4 25.2 27 25.2 16.2 0 28.8-12.6 28.8-28.8v-216c37.8-12.6 64.8-46.8 64.8-90s-27-77.4-64.8-90z m-28.8 127.8c-21.6 0-37.8-16.2-37.8-37.8 0-21.6 16.2-37.8 37.8-37.8s37.8 16.2 37.8 37.8c0 19.8-16.2 37.8-37.8 37.8z" p-id="7341" fill="#ffffff"></path></svg>