<?xml version="1.0" standalone="no"?><!DOCTYPE svg PUBLIC "-//W3C//DTD SVG 1.1//EN" "http://www.w3.org/Graphics/SVG/1.1/DTD/svg11.dtd"><svg t="1673504078478" class="icon" viewBox="0 0 1024 1024" version="1.1" xmlns="http://www.w3.org/2000/svg" p-id="3604" xmlns:xlink="http://www.w3.org/1999/xlink" width="14" height="14"><path d="M512.9984 64a34.59584 34.59584 0 0 0-24.4992 10.10176L332.5952 230.00064a34.67776 34.67776 0 0 0 0.1024 48.896c13.40416 13.50144 35.3024 13.50144 48.80384 0l96.896-96.896v577.79712a34.6112 34.6112 0 0 0 34.60096 34.60096 34.6112 34.6112 0 0 0 34.60096-34.60096V182.00064l96.90112 96.90112a34.34496 34.34496 0 0 0 24.40192 10.09664 34.33984 34.33984 0 0 0 24.3968-10.09664 34.58048 34.58048 0 0 0 0-48.90112l-155.8016-155.904a34.75968 34.75968 0 0 0-24.4992-10.09664z m377.79968 611.00032a34.6112 34.6112 0 0 1 34.60096-34.59584c19.10272 0 34.60096 15.49824 34.60096 34.49856v222.8992c0 34.2016-27.8016 62.10048-62.10048 62.10048H126.10048c-34.2016 0-62.10048-27.8016-62.10048-62.10048v-222.8992c0-19.00032 15.40096-34.60096 34.49856-34.60096a34.6112 34.6112 0 0 1 34.60096 34.60096V870.4a20.6336 20.6336 0 0 0 20.60288 20.60288H870.1952a20.6336 20.6336 0 0 0 20.59776-20.60288v-195.39968z" p-id="3605"></path></svg>