<?xml version="1.0" standalone="no"?><!DOCTYPE svg PUBLIC "-//W3C//DTD SVG 1.1//EN" "http://www.w3.org/Graphics/SVG/1.1/DTD/svg11.dtd"><svg t="1684151979786" class="icon" viewBox="0 0 1024 1024" version="1.1" xmlns="http://www.w3.org/2000/svg" p-id="2480" xmlns:xlink="http://www.w3.org/1999/xlink" width="200" height="200"><path d="M995.2256 63.1808c-3.3792-1.6384-7.0656-2.4576-11.1616-2.4576-14.5408 0-27.8528 10.9568-27.648 10.9568-8.8064 4.4032-888.7296 447.2832-919.8592 463.6672-17.6128 9.216-27.648 24.9856-26.2144 41.0624 1.1264 13.312 9.9328 23.7568 23.3472 28.0576C60.1088 612.9664 406.528 721.7152 406.528 721.7152l4.9152 1.536 16.7936-50.4832L91.648 567.7056 879.616 157.5936c-83.5584 94.8224-424.448 480.768-440.1152 498.5856-20.2752 22.7328-29.696 45.4656-29.696 71.68l0.3072 154.7264h-0.1024l0.1024 54.1696v2.048c1.1264 13.6192 12.9024 24.4736 26.8288 24.4736s25.8048-10.8544 27.0336-24.4736c0 0 0.512-192.8192 0-206.9504-0.512-12.5952 5.12-26.8288 10.8544-33.3824 5.632-6.5536 394.24-446.7712 470.016-532.6848-21.7088 107.2128-128 635.4944-129.536 643.1744-0.8192 4.096-2.56 4.096-3.3792 4.096-0.6144 0-1.3312-0.1024-2.048-0.4096-7.5776-2.4576-256.512-77.6192-267.6736-80.9984l-4.7104-1.4336-17.3056 50.9952 5.12 1.6384c2.56 0.8192 246.4768 75.1616 272.1792 82.5344 5.12 1.536 10.3424 2.2528 15.5648 2.2528 27.2384 0 49.9712-19.5584 55.3984-47.4112 2.048-11.0592 27.2384-135.8848 56.4224-280.576 40.1408-198.9632 85.6064-424.5504 86.7328-431.5136l0.6144-3.2768c2.048-11.776 5.632-30.9248-16.9984-41.6768z" p-id="2481"></path></svg>