<?xml version="1.0" standalone="no"?><!DOCTYPE svg PUBLIC "-//W3C//DTD SVG 1.1//EN" "http://www.w3.org/Graphics/SVG/1.1/DTD/svg11.dtd"><svg t="1672822009056" class="icon" viewBox="0 0 1024 1024" version="1.1" xmlns="http://www.w3.org/2000/svg" p-id="8818" xmlns:xlink="http://www.w3.org/1999/xlink" width="32" height="32"><path d="M784 931H268c-49.075 0-89-39.925-89-89V203h619c25.916 0 47 21.084 47 47v620c0 33.636-27.364 61-61 61zM243 267v575c0 13.785 11.215 25 25 25h513V267H243z" fill="#ffffff" p-id="8819"></path><path d="M764 263H213.037c-18.196 0-33-14.804-33-33v-52.023c0-46.31 37.676-83.986 83.986-83.986H764c18.196 0 33 14.804 33 33V230c0 18.196-14.804 33-33 33z m-519.963-64H733v-41.01H264.023c-10.833 0-19.986 9.152-19.986 19.986V199zM630.998 415.79H320.062c-17.673 0-32-14.327-32-32s14.327-32 32-32h310.936c17.673 0 32 14.327 32 32s-14.327 32-32 32zM494.689 552.347H322.141c-17.673 0-32-14.327-32-32 0-17.673 14.327-32 32-32h172.548c17.673 0 32 14.327 32 32-0.001 17.673-14.327 32-32 32z" fill="#ffffff" p-id="8820"></path></svg>