<?xml version="1.0" standalone="no"?><!DOCTYPE svg PUBLIC "-//W3C//DTD SVG 1.1//EN" "http://www.w3.org/Graphics/SVG/1.1/DTD/svg11.dtd"><svg t="1672821149971" class="icon" viewBox="0 0 1024 1024" version="1.1" xmlns="http://www.w3.org/2000/svg" p-id="7524" xmlns:xlink="http://www.w3.org/1999/xlink" width="32" height="32"><path d="M831.733557 62.688761L132.081713 62.688761c-37.922704 0-68.971861 31.05018-68.971861 68.97186099l0 758.696612c0 37.91963399 31.049157 68.97083801 68.971861 68.97083801l699.651844 0c37.921681 0 63.34265401-31.052227 63.342654-68.97083801L895.07620999 131.661645C895.07620999 93.739964 869.65523799 62.688761 831.733557 62.688761zM447.777815 890.35723401L127.067512 890.35723401 127.067512 255.587096l320.71030201 0L447.777815 890.35723401zM831.733557 890.35723401L511.636215 890.35723401 511.636215 255.587096l320.097342 0L831.733557 890.35723401zM831.733557 192.140065L127.067512 192.140065 127.067512 131.661645l704.666044 0L831.733557 192.140065z" p-id="7525" fill="#ffffff"></path><path d="M319.24851001 447.870424l64.878636 0 0 191.46570601-64.878636 0 0-191.46570601Z" p-id="7526" fill="#ffffff"></path><path d="M574.863235 447.870424l64.878636 0 0 191.46570601-64.878636 0 0-191.46570601Z" p-id="7527" fill="#ffffff"></path></svg>