<?xml version="1.0" standalone="no"?><!DOCTYPE svg PUBLIC "-//W3C//DTD SVG 1.1//EN" "http://www.w3.org/Graphics/SVG/1.1/DTD/svg11.dtd"><svg t="1672822503310" class="icon" viewBox="0 0 1024 1024" version="1.1" xmlns="http://www.w3.org/2000/svg" p-id="9188" xmlns:xlink="http://www.w3.org/1999/xlink" width="32" height="32"><path d="M256.1 64h64v160h-64zM352.2 128h128.1v64H352.2zM512.3 64h64v160h-64z" p-id="9189" fill="#ffffff"></path><path d="M160.1 896c-17.7 0-32-14.3-32-32V224c0-17.7 14.3-32 32-32h64.1v-64h-64.1C107 128 64 171 64 224v640c0 53 43 96 96.1 96H672v-64H160.1z" p-id="9190" fill="#ffffff"></path><path d="M512.7 703H224.8c-17.7 0-32 14.3-32 32s14.3 32 32 32h287.9c17.7 0 32-14.3 32-32s-14.3-32-32-32zM224.8 511c-17.7 0-32 14.3-32 32s14.3 32 32 32h383.9c17.7 0 32-14.3 32-32s-14.3-32-32-32H224.8zM224.8 319c-17.7 0-32 14.3-32 32s14.3 32 32 32h383.9c17.7 0 32-14.3 32-32s-14.3-32-32-32H224.8zM768.3 224c0-53-43-96-96-96h-64v64h64c17.7 0 32 14.3 32 32v350l64 1V224zM927.5 896h-158c-8.5 0-16.6-3.4-22.6-9.4l-64-64c-12.5-12.5-12.5-32.8 0-45.3s32.8-12.5 45.3 0l54.6 54.6h144.7c17.7 0 32 14.3 32 32s-14.3 32.1-32 32.1zM799 768c-8.2 0-16.4-3.1-22.6-9.4L721.7 704H577c-17.7 0-32-14.3-32-32s14.3-32 32-32h158c8.5 0 16.6 3.4 22.6 9.4l64 64c12.5 12.5 12.5 32.8 0 45.3-6.2 6.2-14.4 9.3-22.6 9.3z" p-id="9191" fill="#ffffff"></path></svg>